{
    "asset": {
        "copyright": "2024 (c) Adobe Inc.",
        "generator": "Adobe Substance 3D Stager - 3b65cae5d66550310f3fa94441098965a88f7a29",
        "version": "2.0",
        "extensions": {
            "KHR_xmp_json_ld": {
                "packet": 0
            }
        }
    },
    "accessors": [
        {
            "bufferView": 0,
            "componentType": 5126,
            "count": 24,
            "type": "VEC3",
            "max": [
                0.002616756595671177,
                0.0010000000474974514,
                0.0005000000237487257
            ],
            "min": [
                -0.002616756595671177,
                0.0,
                -0.0005000000237487257
            ]
        },
        {
            "bufferView": 1,
            "componentType": 5126,
            "count": 24,
            "type": "VEC3"
        },
        {
            "bufferView": 2,
            "componentType": 5126,
            "count": 24,
            "type": "VEC4"
        },
        {
            "bufferView": 3,
            "componentType": 5126,
            "count": 24,
            "type": "VEC2"
        },
        {
            "bufferView": 4,
            "componentType": 5125,
            "count": 36,
            "type": "SCALAR",
            "max": [
                23.0
            ],
            "min": [
                0.0
            ]
        },
        {
            "bufferView": 5,
            "componentType": 5126,
            "count": 738736,
            "type": "VEC3",
            "max": [
                0.505300760269165,
                1.3954768180847169,
                0.3702867925167084
            ],
            "min": [
                -0.505300760269165,
                0.30042603611946108,
                -0.3702867925167084
            ]
        },
        {
            "bufferView": 6,
            "componentType": 5126,
            "count": 738736,
            "type": "VEC3"
        },
        {
            "bufferView": 7,
            "componentType": 5126,
            "count": 738736,
            "type": "VEC2"
        },
        {
            "bufferView": 8,
            "componentType": 5125,
            "count": 1107984,
            "type": "SCALAR",
            "max": [
                738735.0
            ],
            "min": [
                0.0
            ]
        }
    ],
    "bufferViews": [
        {
            "buffer": 0,
            "byteOffset": 0,
            "byteLength": 288,
            "target": 34962
        },
        {
            "buffer": 0,
            "byteOffset": 288,
            "byteLength": 288,
            "target": 34962
        },
        {
            "buffer": 0,
            "byteOffset": 576,
            "byteLength": 384,
            "target": 34962
        },
        {
            "buffer": 0,
            "byteOffset": 960,
            "byteLength": 192,
            "target": 34962
        },
        {
            "buffer": 0,
            "byteOffset": 1152,
            "byteLength": 144,
            "target": 34963
        },
        {
            "buffer": 0,
            "byteOffset": 1296,
            "byteLength": 8864832,
            "target": 34962
        },
        {
            "buffer": 0,
            "byteOffset": 8866128,
            "byteLength": 8864832,
            "target": 34962
        },
        {
            "buffer": 0,
            "byteOffset": 17730960,
            "byteLength": 5909888,
            "target": 34962
        },
        {
            "buffer": 0,
            "byteOffset": 23640848,
            "byteLength": 4431936,
            "target": 34963
        }
    ],
    "buffers": [
        {
            "byteLength": 28072784,
            "uri": "headshot_binary.bin"
        }
    ],
    "images": [
        {
            "name": "tvOld_n3dSplit2_Split3_Split4_Split5_Split6_Split7_Split8_Split9_Split10__tvOld_mat10_stack-3A-3Abase_color-3A-3Asampler",
            "uri": "headshot_images/tvOld_n3dSplit2_Split3_Split4_Split5_Split6_Split7_Split8_Split9_Split10__tvOld_mat10_stack-3A-3Abase_color-3A-3Asampler.jpg",
            "mimeType": "image/jpeg"
        },
        {
            "name": "composited_roughness_composited_metallic",
            "uri": "headshot_images/composited_roughness_composited_metallic.png",
            "mimeType": "image/png"
        },
        {
            "name": "composited_translucency",
            "uri": "headshot_images/composited_translucency.png",
            "mimeType": "image/png"
        },
        {
            "name": "tv_normal",
            "uri": "headshot_images/tv_normal.png",
            "mimeType": "image/png"
        }
    ],
    "materials": [
        {
            "pbrMetallicRoughness": {
                "baseColorFactor": [
                    0.5000001192092896,
                    0.5000001192092896,
                    0.5000001192092896,
                    1.0
                ],
                "metallicFactor": 0.0,
                "roughnessFactor": 0.30000001192092898
            },
            "name": "default_material",
            "doubleSided": true
        },
        {
            "pbrMetallicRoughness": {
                "baseColorTexture": {
                    "index": 0
                },
                "metallicRoughnessTexture": {
                    "index": 1
                }
            },
            "normalTexture": {
                "index": 3
            },
            "name": "tvOld_mat_material",
            "doubleSided": true,
            "extensions": {
                "KHR_materials_transmission": {
                    "transmissionFactor": 1,
                    "transmissionTexture": {
                        "index": 2
                    }
                },
                "KHR_materials_volume": {
                    "thicknessFactor": 0
                },
                "KHR_materials_ior": {
                    "ior": 1
                }
            }
        }
    ],
    "meshes": [
        {
            "name": "box#",
            "primitives": [
                {
                    "attributes": {
                        "TANGENT": 2,
                        "NORMAL": 1,
                        "POSITION": 0,
                        "TEXCOORD_0": 3
                    },
                    "indices": 4,
                    "material": 0
                }
            ]
        },
        {
            "name": "tvOld_n3d",
            "primitives": [
                {
                    "attributes": {
                        "POSITION": 5,
                        "NORMAL": 6,
                        "TEXCOORD_0": 7
                    },
                    "indices": 8,
                    "material": 1
                }
            ]
        }
    ],
    "nodes": [
        {
            "name": "working_cam_n3d"
        },
        {
            "translation": [
                -0.2583234906196594,
                0.611812174320221,
                0.34791338443756106
            ],
            "rotation": [
                -0.014219170436263085,
                0.6782932281494141,
                0.7321292161941528,
                0.0608520433306694
            ],
            "scale": [
                1.0,
                1.0,
                1.0000001192092896
            ],
            "mesh": 0,
            "name": "box"
        },
        {
            "translation": [
                0.0,
                -0.30042600631713869,
                0.0
            ],
            "mesh": 1,
            "name": "tvOld_n3d"
        }
    ],
    "samplers": [
        {}
    ],
    "scenes": [
        {
            "nodes": [
                1,
                2
            ],
            "name": "scene"
        }
    ],
    "textures": [
        {
            "name": "tvOld_n3dSplit2_Split3_Split4_Split5_Split6_Split7_Split8_Split9_Split10__tvOld_mat10_stack::base_color::sampler",
            "sampler": 0,
            "source": 0
        },
        {
            "name": "composited_roughness_composited_metallic",
            "sampler": 0,
            "source": 1
        },
        {
            "name": "composited_translucency",
            "sampler": 0,
            "source": 2
        },
        {
            "name": "tvOld_mat_material::normal::image",
            "sampler": 0,
            "source": 3
        }
    ],
    "scene": 0,
    "extensions": {
        "KHR_xmp_json_ld": {
            "packets": [
                {
                    "@context": {
                        "dc": "http://purl.org/dc/elements/1.1/"
                    },
                    "dc:date": "2024-10-16T15:08:27.616Z",
                    "dc:title": "headshot.dn",
                    "xmp:CreatorTool": "Adobe Substance 3D Stager"
                }
            ]
        }
    },
    "extensionsUsed": [
        "KHR_xmp_json_ld",
        "KHR_materials_transmission",
        "KHR_materials_volume",
        "KHR_materials_ior"
    ]
}