{
    "asset": {
        "copyright": "2024 (c) Adobe Inc.",
        "generator": "Adobe Substance 3D Stager - 3b65cae5d66550310f3fa94441098965a88f7a29",
        "version": "2.0",
        "extensions": {
            "KHR_xmp_json_ld": {
                "packet": 0
            }
        }
    },
    "accessors": [
        {
            "bufferView": 0,
            "componentType": 5126,
            "count": 5597,
            "type": "VEC3",
            "max": [
                0.33500006794929507,
                0.7600958943367004,
                0.25460490584373476
            ],
            "min": [
                -0.33500006794929507,
                0.0,
                -0.25460490584373476
            ]
        },
        {
            "bufferView": 1,
            "componentType": 5126,
            "count": 5597,
            "type": "VEC3"
        },
        {
            "bufferView": 2,
            "componentType": 5126,
            "count": 5597,
            "type": "VEC4"
        },
        {
            "bufferView": 3,
            "componentType": 5126,
            "count": 5597,
            "type": "VEC2"
        },
        {
            "bufferView": 4,
            "componentType": 5125,
            "count": 17682,
            "type": "SCALAR",
            "max": [
                5596.0
            ],
            "min": [
                0.0
            ]
        }
    ],
    "bufferViews": [
        {
            "buffer": 0,
            "byteOffset": 0,
            "byteLength": 67164,
            "target": 34962
        },
        {
            "buffer": 0,
            "byteOffset": 67164,
            "byteLength": 67164,
            "target": 34962
        },
        {
            "buffer": 0,
            "byteOffset": 134328,
            "byteLength": 89552,
            "target": 34962
        },
        {
            "buffer": 0,
            "byteOffset": 223880,
            "byteLength": 44776,
            "target": 34962
        },
        {
            "buffer": 0,
            "byteOffset": 268656,
            "byteLength": 70728,
            "target": 34963
        }
    ],
    "buffers": [
        {
            "byteLength": 339384,
            "uri": "headshot_binary.bin"
        }
    ],
    "images": [
        {
            "name": "composited_baseColor",
            "uri": "headshot_images/composited_baseColor.jpg",
            "mimeType": "image/jpeg"
        },
        {
            "name": "composited_roughness_composited_metallic",
            "uri": "headshot_images/composited_roughness_composited_metallic.png",
            "mimeType": "image/png"
        },
        {
            "name": "classic_television_Mat_normal",
            "uri": "headshot_images/classic_television_Mat_normal.png",
            "mimeType": "image/png"
        }
    ],
    "materials": [
        {
            "pbrMetallicRoughness": {
                "baseColorTexture": {
                    "index": 0
                },
                "metallicRoughnessTexture": {
                    "index": 1
                }
            },
            "normalTexture": {
                "index": 2
            },
            "name": "classic_television_Mat_material",
            "doubleSided": true,
            "extensions": {
                "KHR_materials_ior": {
                    "ior": 1.600000023841858
                }
            }
        }
    ],
    "meshes": [
        {
            "name": "classic_television_n3d",
            "primitives": [
                {
                    "attributes": {
                        "POSITION": 0,
                        "NORMAL": 1,
                        "TANGENT": 2,
                        "TEXCOORD_0": 3
                    },
                    "indices": 4,
                    "material": 0
                }
            ]
        }
    ],
    "nodes": [
        {
            "name": "working_cam_n3d"
        },
        {
            "mesh": 0,
            "name": "classic_television_n3d"
        }
    ],
    "samplers": [
        {}
    ],
    "scenes": [
        {
            "nodes": [
                1
            ],
            "name": "scene"
        }
    ],
    "textures": [
        {
            "name": "composited_baseColor",
            "sampler": 0,
            "source": 0
        },
        {
            "name": "composited_roughness_composited_metallic",
            "sampler": 0,
            "source": 1
        },
        {
            "name": "classic_television_Mat_material::normal::image",
            "sampler": 0,
            "source": 2
        }
    ],
    "scene": 0,
    "extensions": {
        "KHR_xmp_json_ld": {
            "packets": [
                {
                    "@context": {
                        "dc": "http://purl.org/dc/elements/1.1/"
                    },
                    "dc:date": "2024-10-16T22:45:04.535Z",
                    "dc:title": "Untitled.dn",
                    "xmp:CreatorTool": "Adobe Substance 3D Stager"
                }
            ]
        }
    },
    "extensionsUsed": [
        "KHR_xmp_json_ld",
        "KHR_materials_ior"
    ]
}